<?xml version="1.0" encoding="UTF-8" standalone="no"?>
<svg
   xmlns:dc="http://purl.org/dc/elements/1.1/"
   xmlns:cc="http://creativecommons.org/ns#"
   xmlns:rdf="http://www.w3.org/1999/02/22-rdf-syntax-ns#"
   xmlns:svg="http://www.w3.org/2000/svg"
   xmlns="http://www.w3.org/2000/svg"
   viewBox="0 0 512 512"
   height="512"
   width="512"
   id="svg2"
   version="1.1">
  <metadata
     id="metadata8">
    <rdf:RDF>
      <cc:Work
         rdf:about="">
        <dc:format>image/svg+xml</dc:format>
        <dc:type
           rdf:resource="http://purl.org/dc/dcmitype/StillImage" />
        <dc:title></dc:title>
      </cc:Work>
    </rdf:RDF>
  </metadata>
  <path
     id="path817"
     d="m 246.33333,459.61996 c -0.73333,-0.16487 -2.98333,-0.61673 -5,-1.00415 -9.43585,-1.81269 -21.33772,-7.17632 -29.38109,-13.24072 -9.2106,-6.94445 -19.70827,-19.94359 -20.42578,-25.29299 -0.73849,-5.50587 3.35792,-10.07472 9.03735,-10.07961 3.95278,-0.003 6.0136,1.39598 9.11914,6.19228 9.2758,14.32586 23.7709,23.13698 41.50268,25.22821 16.20707,1.91141 31.47375,-3.96823 43.89306,-16.90447 13.91113,-14.49015 18.77921,-32.14418 14.0594,-50.98618 -2.61222,-10.42824 -6.10362,-16.56124 -13.77602,-24.199 -9.34502,-9.30281 -18.68644,-14.16868 -31.49005,-16.40292 -11.39169,-1.98785 -21.49188,-0.47696 -31.9613,4.7811 -6.68689,3.35836 -9.32618,3.6593 -12.64547,1.44187 -4.51021,-3.01302 -5.77222,-9.02295 -2.74993,-13.09566 0.7038,-0.94841 3.95077,-3.13014 7.21549,-4.84829 18.20634,-9.58156 40.59772,-10.04835 60.95752,-1.27076 15.08905,6.50524 27.55852,17.31029 34.85004,30.19827 l 2.90628,5.13693 2.61101,-1.7537 c 19.5848,-13.15433 36.80927,-36.66074 44.88392,-61.25354 4.59482,-13.99435 5.69161,-21.1519 5.71059,-37.26663 0.0102,-8.6393 -0.32403,-16.04217 -0.87282,-19.33333 l -0.88932,-5.33334 -6.44402,-0.0735 c -10.23624,-0.11672 -19.9223,-4.07414 -27.29162,-11.15053 -7.6944,-7.38854 -11.9685,-16.90263 -12.63852,-28.13317 -0.73137,-12.25874 3.16679,-22.44535 11.89428,-31.08194 13.04254,-12.90668 30.32162,-15.35989 47.86178,-6.7952 14.25249,6.95935 22.0634,19.89325 22.0634,36.53423 0,7.27476 -1.21279,12.34039 -4.41214,18.42878 -2.34421,4.46102 -8.09299,11.11703 -11.85673,13.72786 l -1.93554,1.34265 1.11385,5.93374 c 6.29451,33.53211 -0.14708,68.4907 -18.10352,98.248 -10.03576,16.63122 -25.63954,32.97082 -41.25738,43.20294 -4.5512,2.98175 -4.76276,3.23279 -4.33334,5.14212 0.24831,1.10404 0.44471,6.50734 0.43645,12.00734 -0.0169,11.21912 -1.25785,17.52853 -5.29764,26.93396 -7.63917,17.78553 -22.83211,33.05056 -40.11227,40.30261 -8.9773,3.76755 -13.18726,4.57968 -24.9084,4.80501 -6.05,0.1163 -11.6,0.0766 -12.33334,-0.0883 z M 244,426.30487 c -7.47574,-2.60346 -12.41075,-5.48615 -16.58469,-9.68762 -6.48096,-6.5237 -10.93687,-15.64978 -11.9244,-24.42212 L 215,387.83432 l -5.33333,-1.93515 c -2.93334,-1.06434 -9.23334,-3.84764 -14,-6.18512 -41.86643,-20.53044 -71.37762,-61.37428 -77.26948,-106.94188 -0.58512,-4.5253 -1.06418,-9.7753 -1.06458,-11.66666 l -6.7e-4,-3.43884 -4.88027,-2.19418 c -20.18599,-9.07565 -35.640337,-29.18544 -40.40553,-52.57721 -2.71202,-13.31301 -1.52626,-28.37509 3.19324,-40.56195 3.915967,-10.11194 13.151687,-22.65516 21.8097,-29.62017 12.57257,-10.11412 26.83551,-15.70763 41.95098,-16.45198 6.59116,-0.32457 7.54934,-0.22411 9.46763,0.9927 3.05961,1.94076 4.41534,4.92713 4.03478,8.88769 -0.54869,5.71036 -4.61771,8.51322 -12.3708,8.52138 -4.56441,0.005 -11.78064,1.6597 -17.47323,4.00713 -13.50317,5.56826 -25.66204,18.19789 -30.63322,31.81924 -5.37188,14.71929 -3.41238,32.60087 5.169433,47.17407 4.504137,7.6487 12.928117,15.92552 19.805407,19.4594 16.10978,8.27799 32.92513,9.09426 47.85836,2.32321 6.33237,-2.87123 11.60648,-6.46103 16.71597,-11.37767 10.77434,-10.36764 15.87692,-21.11774 16.85495,-35.50996 0.23267,-3.42377 0.84583,-7.0633 1.36257,-8.08785 2.00916,-3.98351 7.98062,-5.65666 12.27074,-3.43815 3.51527,1.81781 4.59877,4.5042 4.60158,11.40898 0.0111,27.19432 -19.64884,54.4336 -46.86174,64.92801 -9.89153,3.81458 -14.62256,4.74503 -24.70779,4.8593 l -9.23876,0.10467 0.43766,5 c 1.17329,13.40413 4.93633,25.98808 12.06107,40.33334 6.64961,13.38861 11.98976,20.72628 23.28987,32.00161 10.56919,10.54602 18.37005,16.39415 29.68879,22.257 6.05438,3.13603 15.86688,7.40805 17.01574,7.40805 0.10468,0 1.11212,-1.63334 2.23877,-3.62965 2.79708,-4.95616 10.75594,-12.52511 16.15435,-15.36295 12.81022,-6.73407 30.15934,-5.45966 43.05027,3.16232 11.26615,7.53526 17.05083,18.9442 17.15301,33.83028 0.061,8.88416 -1.5897,14.52792 -6.31577,21.59399 -5.25219,7.85267 -12.42691,13.42067 -21.802,16.91964 -3.58276,1.33715 -6.04943,1.7303 -12.16103,1.93829 -6.93277,0.23593 -8.1453,0.0942 -12.66667,-1.48038 z m 86.93981,-174.28109 c -17.73176,-8.89429 -31.90446,-30.69371 -35.00137,-53.83659 -2.07078,-15.47472 1.67772,-34.24937 9.35472,-46.85386 3.11179,-5.10908 3.21334,-4.93647 -4.69981,-7.98811 -15.76478,-6.07954 -24.96973,-7.67419 -44.26002,-7.66751 -13.32915,0.005 -16.3267,0.20542 -22.9333,1.53639 -19.62759,3.95417 -40.81188,13.73298 -53.30743,24.60706 l -2.90739,2.53013 2.40516,4.37566 c 4.70129,8.55294 6.44777,21.72747 4.08357,30.80426 -3.88173,14.90294 -17.28983,27.03505 -33.35953,30.18482 -17.10312,3.35234 -35.3872,-5.97901 -43.05722,-21.97441 -8.04647,-16.78046 -5.3391,-34.97153 7.04842,-47.35905 7.62076,-7.62076 15.27892,-11.26087 25.48088,-12.11168 5.88563,-0.49084 14.34058,0.8553 19.4223,3.09228 l 2.87545,1.26579 5.79121,-4.70123 c 18.89232,-15.33654 40.06822,-24.8766 65.13277,-29.34326 11.33156,-2.01935 34.73857,-2.20722 45.29648,-0.36356 14.25699,2.48961 27.31119,6.58031 37.83205,11.85514 l 5.13675,2.57542 5.11182,-3.66756 c 27.55157,-19.76735 67.82897,-16.40784 93.29415,7.78158 8.83214,8.38968 16.10191,21.00695 19.42649,33.71628 2.09897,8.024 2.80842,21.26012 1.5872,29.6121 -1.47001,10.05343 -6.48836,23.0771 -10.56438,27.41676 -5.55236,5.9115 -15.46211,1.80105 -15.46211,-6.4135 0,-1.31103 1.1453,-4.6982 2.6599,-7.86644 4.07634,-8.52698 5.4792,-14.74642 5.46546,-24.23069 -0.0141,-9.76318 -1.4708,-16.01931 -5.74336,-24.66667 -5.18092,-10.4858 -12.21638,-17.70115 -22.33216,-22.90319 -15.52665,-7.98457 -32.92074,-9.00221 -47.94856,-2.80524 -12.33734,5.08751 -24.165,16.89525 -28.98552,28.9367 -4.19742,10.48498 -4.95869,26.14621 -1.80237,37.07929 3.80779,13.18966 12.01341,24.13001 23.20603,30.94004 4.52488,2.75311 6.14724,5.20862 6.14724,9.30412 0,3.53008 -2.25646,6.73304 -5.78079,8.2056 -3.0942,1.29284 -4.17537,1.15892 -8.61273,-1.06687 z"
     style="fill:#FFFFFF;stroke-width:0.66666669" />
</svg>
